<?xml version="1.0" encoding="UTF-8"?>
<svg version="1.1" viewBox="-5 -10 110 135" xmlns="http://www.w3.org/2000/svg">
 <path d="m42.016 63.246h-5.7344v-5.7344c0-0.67188-0.54297-1.2188-1.2188-1.2188h-9.3711c-0.67188 0-1.2188 0.54297-1.2188 1.2188v5.7344h-5.7344c-0.67188 0-1.2188 0.54297-1.2188 1.2188v9.3711c0 0.67187 0.54297 1.2188 1.2188 1.2188h5.7344v5.7344c0 0.67188 0.54297 1.2188 1.2188 1.2188h9.3711c0.67188 0 1.2188-0.54297 1.2188-1.2188v-5.7383h5.7344c0.67188 0 1.2188-0.54297 1.2188-1.2188v-9.3711c0-0.66797-0.54297-1.2148-1.2188-1.2148zm-1.2148 9.3711h-5.7344c-0.67188 0-1.2188 0.54297-1.2188 1.2188v5.7344h-6.9336v-5.7344c0-0.67188-0.54297-1.2188-1.2188-1.2188h-5.7344v-6.9336h5.7344c0.67188 0 1.2188-0.54297 1.2188-1.2188v-5.7344h6.9336v5.7344c0 0.67188 0.54297 1.2188 1.2188 1.2188h5.7344zm-22.977-51.156v-4.1172c0-0.67188 0.54297-1.2188 1.2188-1.2188 0.67188 0 1.2188 0.54297 1.2188 1.2188v4.1211c0 0.67188-0.54297 1.2188-1.2188 1.2188-0.67188-0.0039-1.2188-0.54688-1.2188-1.2227zm7.5586 0v-4.1172c0-0.67188 0.54297-1.2188 1.2188-1.2188 0.67188 0 1.2188 0.54297 1.2188 1.2188v4.1211c0 0.67188-0.54297 1.2188-1.2188 1.2188-0.67187-0.0039-1.2188-0.54688-1.2188-1.2227zm7.5586 0v-4.1172c0-0.67188 0.54297-1.2188 1.2188-1.2188 0.67188 0 1.2188 0.54297 1.2188 1.2188v4.1211c0 0.67188-0.54297 1.2188-1.2188 1.2188-0.67188-0.0039-1.2188-0.54688-1.2188-1.2227zm7.5586 0v-4.1172c0-0.67188 0.54297-1.2188 1.2188-1.2188 0.67188 0 1.2188 0.54297 1.2188 1.2188v4.1211c0 0.67188-0.54297 1.2188-1.2188 1.2188-0.67578-0.003906-1.2188-0.54688-1.2188-1.2227zm37.906 56.887h-19.688c-0.36328 0-0.72266 0.02344-1.082 0.06641v-35.051c0-6.3047-6.5039-8.293-8.6406-8.9453-5.0312-1.5352-5.0312-3.9414-5.0312-4.7305v-2.9453h1.6562c2.6836 0 4.8711-2.1836 4.8711-4.8711v-4.9336c0-2.6836-2.1836-4.8711-4.8711-4.8711h-30.484c-2.6836 0-4.8711 2.1836-4.8711 4.8711v4.9336c0 2.6836 2.1836 4.8711 4.8711 4.8711h1.6562v2.9453c0 0.78906 0 3.1914-5.0312 4.7305-2.1328 0.65234-8.6367 2.6406-8.6367 8.9453v51.574c0 4.9609 4.0352 9 9 9h36.512c4.5234 0 8.2773-3.3555 8.9062-7.7109 0.38672 0.05078 0.78125 0.07813 1.1758 0.07813l19.688-0.0039c4.9492 0 8.9766-4.0273 8.9766-8.9766s-4.0273-8.9766-8.9766-8.9766zm-72.848-26.156h49.641v33.914h-49.641zm7.1406-30.32v-4.9336c0-1.3438 1.0938-2.4375 2.4375-2.4375h30.484c1.3438 0 2.4375 1.0938 2.4375 2.4375v4.9336c0 1.3438-1.0938 2.4375-2.4375 2.4375l-30.484-0.0039c-1.3438 0-2.4375-1.0898-2.4375-2.4336zm-0.22266 14.875c4.4805-1.3672 6.7539-3.7422 6.7539-7.0586v-2.9453h22.301v2.9453c0 3.3164 2.2734 5.6914 6.7539 7.0586 4.7188 1.4414 6.9141 3.543 6.9141 6.6172v6.3945h-49.641v-6.3945c0-3.0742 2.1992-5.1758 6.918-6.6172zm36.16 64.754h-36.512c-3.6172 0-6.5625-2.9453-6.5625-6.5625l-0.00391-6.3945h49.641v6.3945c0 3.6172-2.9453 6.5625-6.5625 6.5625zm9-7.7266v-12.898c0.35547-0.05859 0.71875-0.09375 1.082-0.09375h8.6289v13.086h-8.6289c-0.36719 0-0.72656-0.03516-1.082-0.09375zm20.77 0.09375h-8.6289v-13.086h8.6289c3.6055 0 6.543 2.9336 6.543 6.543 0 3.6055-2.9375 6.543-6.543 6.543zm16.898-46.012c-1.3516-1.9688-3.3984-3.2969-5.7617-3.7383-2.3633-0.44141-4.75 0.0625-6.7188 1.4141l-16.234 11.137c-1.9688 1.3516-3.2969 3.3984-3.7383 5.7617-0.44141 2.3633 0.0625 4.75 1.4141 6.7188s3.3984 3.2969 5.7617 3.7383c0.55859 0.10547 1.1172 0.15625 1.6719 0.15625 1.793 0 3.543-0.53516 5.0469-1.5703l16.234-11.137c1.9688-1.3516 3.2969-3.3984 3.7383-5.7617s-0.0625-4.75-1.4141-6.7188zm-19.934 21.609c-1.4336 0.98438-3.1719 1.3516-4.8984 1.0273-1.7227-0.32031-3.2148-1.2891-4.1992-2.7227-0.98438-1.4336-1.3477-3.1719-1.0273-4.8984 0.32031-1.7227 1.2891-3.2148 2.7227-4.1992l7.1133-4.8789 7.4023 10.789zm16.234-11.137-7.1133 4.8789-7.4023-10.789 7.1133-4.8789c1.0938-0.75 2.3672-1.1406 3.6758-1.1406 0.40625 0 0.81641 0.03906 1.2227 0.11328 1.7227 0.32031 3.2148 1.2891 4.1992 2.7227 2.0391 2.9727 1.2773 7.0508-1.6953 9.0938z"/>
</svg>
