<?xml version="1.0" encoding="UTF-8"?>
<svg version="1.1" viewBox="-5 -10 110 135" xmlns="http://www.w3.org/2000/svg">
 <g transform="translate(-.31847 8.7925)">
  <path d="m81.25 50h-4.8125c-0.32812-2.3438-1.3906-4.4844-3.0781-6.1562-2.0469-2.0781-4.7969-3.2188-7.7344-3.2188h-9.375v-3.5312c2.4688-1.7344 4.2031-4.4531 4.5938-7.5938 2.7344-0.67188 4.7812-3.125 4.7812-6.0625v-4.6875c0-8.6094-7.0156-15.625-15.625-15.625s-15.625 7.0156-15.625 15.625v4.6875c0 2.9375 2.0469 5.3906 4.7812 6.0625 0.39062 3.1406 2.125 5.8594 4.5938 7.5938v3.5312h-9.375c-5.5 0-10.047 4.0781-10.812 9.375h-4.8125c-4.3125 0-7.8125 3.5-7.8125 7.8125v31.25c0 4.3125 3.5 7.8125 7.8125 7.8125h62.5c4.3125 0 7.8125-3.5 7.8125-7.8125v-31.25c0-4.3125-3.5-7.8125-7.8125-7.8125zm-43.75-26.562v-4.6875c0-6.8906 5.6094-12.5 12.5-12.5s12.5 5.6094 12.5 12.5v4.6875c0 1.1562-0.64062 2.1562-1.5625 2.6875v-5.8125c0-0.85938-0.70312-1.5625-1.5625-1.5625h-4.0469l-2.6719-2.6719c-0.60938-0.60938-1.5938-0.60938-2.2031 0l-2.6719 2.6719h-7.1719c-0.85938 0-1.5625 0.70312-1.5625 1.5625v5.8125c-0.92188-0.54688-1.5625-1.5312-1.5625-2.6875zm4.6875 4.6875v-6.25h6.25c0.42188 0 0.8125-0.17188 1.1094-0.45312l2.0156-2.0156 2.0156 2.0156c0.29688 0.29688 0.6875 0.45312 1.1094 0.45312h3.125v6.25c0 4.3125-3.5 7.8125-7.8125 7.8125s-7.8125-3.5-7.8125-7.8125zm-7.8125 15.625h10.938c0.85938 0 1.5625-0.70312 1.5625-1.5625v-3.5781c0.98438 0.29688 2.0312 0.45312 3.125 0.45312s2.1406-0.17188 3.125-0.45312v3.5781c0 0.85938 0.70312 1.5625 1.5625 1.5625h10.938c2.0938 0 4.0469 0.8125 5.5312 2.2969 1.0938 1.0938 1.8281 2.4531 2.1406 3.9531h-46.562c0.71875-3.5625 3.875-6.25 7.6562-6.25zm51.562 45.312c0 2.5781-2.1094 4.6875-4.6875 4.6875h-62.5c-2.5781 0-4.6875-2.1094-4.6875-4.6875v-31.25c0-2.5781 2.1094-4.6875 4.6875-4.6875h62.5c2.5781 0 4.6875 2.1094 4.6875 4.6875z"/>
  <path d="m69.203 70.766c-1.7188 1.7188-4 2.6719-6.4375 2.6719h-11.203v-3.125h8.0781c3.2656 0 6.3438-1.2656 8.6562-3.5781 0.60938-0.60938 0.60938-1.5938 0-2.2031s-1.5938-0.60938-2.2031 0c-1.7188 1.7188-4 2.6719-6.4375 2.6719h-8.0781v-3.125h4.9531c3.2656 0 6.3438-1.2656 8.6562-3.5781 0.60938-0.60938 0.60938-1.5938 0-2.2031s-1.5938-0.60938-2.2031 0c-1.7188 1.7188-4 2.6719-6.4375 2.6719h-4.9531v-3.125c0-0.85938-0.70312-1.5625-1.5625-1.5625s-1.5625 0.70312-1.5625 1.5625v3.125h-4.9531c-2.4375 0-4.7188-0.95312-6.4375-2.6719-0.60938-0.60938-1.5938-0.60938-2.2031 0s-0.60938 1.5938 0 2.2031c2.3125 2.3125 5.375 3.5781 8.6562 3.5781h4.9531v3.125h-8.0781c-2.4375 0-4.7188-0.95312-6.4375-2.6719-0.60938-0.60938-1.5938-0.60938-2.2031 0s-0.60938 1.5938 0 2.2031c2.3125 2.3125 5.375 3.5781 8.6562 3.5781h8.0781v3.125h-11.203c-2.4375 0-4.7188-0.95312-6.4375-2.6719-0.60938-0.60938-1.5938-0.60938-2.2031 0s-0.60938 1.5938 0 2.2031c2.3125 2.3125 5.375 3.5781 8.6562 3.5781h11.203v3.6719c-0.71875-0.34375-1.5-0.54688-2.3438-0.54688-3.0156 0-5.4688 2.4531-5.4688 5.4688s2.4531 5.4688 5.4688 5.4688c1.5 0 2.8438-0.60938 3.8281-1.5781h0.15626c0.98438 0.96875 2.3438 1.5781 3.8281 1.5781 3.0156 0 5.4688-2.4531 5.4688-5.4688s-2.4531-5.4688-5.4688-5.4688c-0.84375 0-1.625 0.20312-2.3438 0.54688v-3.6719h11.203c3.2656 0 6.3438-1.2656 8.6562-3.5781 0.60938-0.60938 0.60938-1.5938 0-2.2031s-1.5938-0.60938-2.2031 0zm-23.109 16.734c-1.2969 0-2.3438-1.0469-2.3438-2.3438s1.0469-2.3438 2.3438-2.3438 2.3438 1.0469 2.3438 2.3438-1.0469 2.3438-2.3438 2.3438zm7.8125-4.6875c1.2969 0 2.3438 1.0469 2.3438 2.3438s-1.0469 2.3438-2.3438 2.3438-2.3438-1.0469-2.3438-2.3438 1.0469-2.3438 2.3438-2.3438z"/>
 </g>
</svg>
