<?xml version="1.0" encoding="UTF-8"?>
<svg version="1.1" viewBox="0 0 64 80" xmlns="http://www.w3.org/2000/svg">
 <defs>
  <style>.cls-1 {
        stroke-width: 0px;
      }</style>
 </defs>
 <path class="cls-1" d="m53.793 19.618c-13.129-12.465-35.203-2.8819-35.144 15.389-1.2e-4 11.599 9.3866 21.036 20.925 21.036 19.046-0.05662 28.032-23.626 14.219-36.425zm-14.219 34.925c-25.767-1.0706-25.763-38.004 1.5e-4 -39.072 4.6892 4e-5 8.9956 1.6802 12.356 4.4728-1.407 1.0128-4.0714 3.404-5.1197 7.5663-0.67774 2.669-2.2113 5.4241-3.0429 6.0695 0.28844-2.4502-3.2678-2.9887-3.7179-0.56648 0-6e-5 -0.61327 3.808-0.61327 3.808-0.35956-0.12433-0.70465-0.2157-1.0419-0.29144 0.50311-0.69952 0.75842-1.4962 0.78119-2.4283 0.61548-0.48567 0.76341-1.3854 0.21384-1.9805-0.35453-0.41508-1.0735-1.001-0.99016-1.6147 0.22315-3.7-3.5325-6.8341-7.8454-6.1293-2.3129 0.36365-4.1288 1.8363-5.1132 4.1473-1.8931 4.4438 1.2988 8.0064 3.0137 9.9204 0.87137 0.92408 1.064 1.2228 1.3325 2.2378 0.49224 1.5825 1.1656 3.75 3.0381 5.6562 2.6579 3.0704 12.251 7.1816 16.271 2.3949 1.3114-1.7054 1.0087-3.9003 0.90909-4.621-0.15698-1.1403-0.8222-2.8133-1.2855-3.8806 0.4696 0.0089 0.97617-0.26902 1.4779-0.11704 2.2168 1.129 3.0703 0.3873 3.3818-0.15371 0.45312-0.78906 1.0684-2.9468 1.5049-4.6167 0.37926-1.3446-1.4061-2.332-2.3545-1.2504 3e-5 -7e-5 -1.7431 2.1298-1.7431 2.1298-0.125 0.15088-0.32324 0.20703-0.50195 0.14795-3.7739-1.2919-6.1071-1.2441-6.9407 0.13831-0.0083-0.12046-0.01365-0.21961-0.01172-0.34912 0.8573-0.78363 3.5374-3.5356 4.7337-8.2848 0.99799-3.965 3.713-6.152 4.8022-6.8925 12.438 12.01 3.9874 33.522-13.494 33.56zm5.5137-9.3745c-1.0332-3.2515-1.1387-6.4194-0.26074-7.8828 0.3125-0.52197 2.1894-0.51611 5.1719 0.50537 0.76758 0.26123 1.6318 0.01318 2.1475-0.61719l1.333-1.6314c-0.49902 1.8516-0.94727 3.2314-1.1748 3.6475-0.10742 0.04785-0.59082 0.01367-1.4268-0.41162-0.95649-0.52162-2.3904 0.12336-3.2849 0.01701-0.87271 0.02339-1.7023-0.1685-1.6477-0.16448-0.94347-0.27767-1.368 1.146-0.43648 1.4351 0.04 0.01268 0.62331 0.17882 1.5939 0.22149 6.1484 12.225-8.2309 10.265-13.207 5.0001-1.9879-2.0806-2.307-4.0902-3.0283-6.1166-1.7227-2.8448-5.9203-5.4726-4.0463-10.059 0.99259-2.3295 2.7045-3.0551 3.9662-3.2533 3.4115-0.52956 6.2859 1.8141 6.1142 4.5885-0.08392 1.0048 0.56903 1.8744 1.258 2.5502-0.2219 0.21743-0.51965 0.47187-0.48441 0.81743 0.03561 1.0803-0.31802 1.8189-1.1599 2.5062-1.1457 0.07986-3.5379 0.15887-3.1429 1.4708 0.15045 0.38681 0.586 0.5748 0.97174 0.42587 1.6484-0.64404 3.457-0.53174 5.377 0.32959 0.43326 0.20608 0.98372-0.0893 1.0478-0.56495 0 1e-5 0.76173-4.7319 0.76173-4.7319 0.0332-0.20557 0.2373-0.35107 0.42773-0.31982 0.20996 0.02979 0.35547 0.22559 0.3252 0.43701-0.14551 1.0142-0.27832 2.3516-0.24707 3.0532 0.05489 1.197 0.31833 3.0797-0.29984 3.5727-0.58883 0.60061-2.0634 0.83791-4.5068 0.72756-0.9781-0.0391-1.0492 1.4498-0.06831 1.498 2.068 0.16155 4.8262-0.16182 5.61-1.1439 0.1046 1.5492 0.44542 3.1589 0.88701 4.5477 0.12469 0.39867 0.5576 0.61242 0.94238 0.48779 0.39453-0.12549 0.6123-0.54736 0.4873-0.94189z"/>
 <path class="cls-1" d="m35.342 58.803h-9.2647c0.73053-1.1519 0.68933-2.6715-0.18451-3.7832l-6.5249-8.3018c-1.0962-1.3945-2.7398-2.1943-4.5098-2.1943h-10.608c-0.9712 0.0095-0.98944 1.4909 6e-5 1.5h10.608c1.3066 0 2.5205 0.59082 3.3301 1.6211l6.5249 8.3018c1.3373 1.7317-1.0479 3.8963-2.629 2.3657 5e-5 5e-5 -5.4033-5.3701-5.4033-5.3701-0.29395-0.29248-0.76904-0.29053-1.0606 0.0029-0.29199 0.29395-0.29053 0.76855 0.0029 1.0606l5.4033 5.3701c0.78827 0.81117 1.8405 1.0105 2.8721 0.92717 0 8e-5 11.443 8e-5 11.443 8e-5 1.1592 0 2.1025 0.94775 2.1025 2.1133 0.02302 1.1316-0.96707 2.1363-2.1006 2.1128 2e-5 2e-5 -14.275 2e-5 -14.275 2e-5 -1.6919 0-3.2812-0.75049-4.3608-2.0586l-5.1406-6.227c-0.84521-1.0234-2.0898-1.6108-3.415-1.6108h-3.9023c-0.41406 0-0.75 0.33594-0.75 0.75s0.33594 0.75 0.75 0.75h3.9023c0.87598 0 1.6987 0.38867 2.2578 1.0659l5.1406 6.227c1.3657 1.6543 3.377 2.6035 5.5181 2.6035h14.275c0.96289 0 1.8672-0.37646 2.5478-1.0596 2.2607-2.1809 0.60026-6.2276-2.5498-6.1665z"/>
</svg>
