<?xml version="1.0" encoding="UTF-8"?>
<svg version="1.1" viewBox="-5 -10 110 135" xmlns="http://www.w3.org/2000/svg">
 <g transform="translate(-.052843 7.3762)">
  <path d="m93.766 86.227c-0.11719-2.0352 0.34375-10.496-0.42188-12.305 3.9219-5.6484 1.6797-14.395-4.2656-17.539v-15.754c0.03516-11.406-9.6836-20.93-21.137-20.23-1.0742-1.9023-3.0898-3.207-5.4258-3.207v-7.8125c0-2.5859-2.1016-4.6875-4.6875-4.6875s-4.6875 2.1016-4.6875 4.6875v7.8125c-3.4453 0-6.25 2.8047-6.25 6.25v18.75c0 2.3047 1.2656 4.2969 3.125 5.3789-0.33594 2.8633 1.7109 5.582 4.6875 5.5586h6.25c2.9766 0.02344 5.0234-2.6953 4.6875-5.5586 1.8594-1.0859 3.125-3.0781 3.125-5.3789v-9.375c4.3086 0 7.8125 3.5039 7.8125 7.8125v15.754c-2.3906 1.3867-4.2812 3.5352-5.3281 6.1211h-25.922c-0.86328 0-1.5625 0.69922-1.5625 1.5625s0.69922 1.5625 1.5625 1.5625h25.109c-0.0625 0.51172-0.10938 1.0312-0.10938 1.5625h-21.875c-6.0312 0-10.938 4.9062-10.938 10.938v8.1016c-4.8789 1.7461-3.6953 9.0352 1.5625 9.0859h53.125c5.2344-0.04297 6.4609-7.3359 1.5625-9.0859zm-35.938-78.414c2.0547 0.035156 2.0547 3.0898 0 3.125-2.0547-0.03516-2.0547-3.0898 0-3.125zm-1.5625 5.9609c0.96875 0.375 2.1562 0.375 3.125 0v3.4141h-3.125zm4.6875 36.227h-6.25c-0.86328 0-1.5625-0.69922-1.5625-1.5625h9.375c0 0.86328-0.69922 1.5625-1.5625 1.5625zm4.6875-7.8125c0 1.7227-1.4023 3.125-3.125 3.125h-9.375c-1.7227 0-3.125-1.4023-3.125-3.125v-18.75c0-1.7227 1.4023-3.125 3.125-3.125 1.9883-0.02344 7.4375 0.01563 9.375 0 1.7227 0 3.125 1.4023 3.125 3.125zm3.125-12.5v-6.25c9.4766 0 17.188 7.7109 17.188 17.188v14.473c-1.9844-0.54297-4.2656-0.54297-6.25 0v-14.473c0-6.0312-4.9062-10.938-10.938-10.938zm14.062 28.125c5.168 0 9.375 4.207 9.375 9.375-0.44141 12.406-18.312 12.406-18.75 0 0-5.168 4.207-9.375 9.375-9.375zm-42.188 20.312c0-4.3086 3.5039-7.8125 7.8125-7.8125h22.285c2 8.5625 13.102 12.355 19.902 6.6172v9.0078h-50zm51.562 14.062h-53.125c-2.0352-0.03125-2.0664-3.0859 0-3.125h53.125c2.0352 0.03125 2.0664 3.0859 0 3.125z"/>
  <path d="m82.828 71.875c6.1797-0.16016 6.1797-9.2148 0-9.375-6.1797 0.16016-6.1797 9.2148 0 9.375zm0-6.25c2.0547 0.03516 2.0547 3.0898 0 3.125-2.0547-0.03516-2.0547-3.0898 0-3.125z"/>
  <path d="m24.062 34.891c3.8047-1.875 7.207-4.2461 7.207-8.3281 0-0.86328-0.69922-1.5625-1.5625-1.5625s-1.5625 0.69922-1.5625 1.5625c0 2.9961-3.7109 4.7891-7.8125 6.6172-3.332-1.4844-6.4023-2.9531-7.4375-5.0547h10.562c2.0508-0.03516 2.0547-3.0898 0-3.125h-12.504c-0.86328 0-1.5625 0.69922-1.5625 1.5625 0 4.082 3.4023 6.457 7.207 8.3281-9.6289 4.2344-9.6094 12.434 0.0039 16.664-9.6289 4.2383-9.6172 12.438 0 16.672-3.8047 1.875-7.207 4.25-7.207 8.3359 0 0.86328 0.69922 1.5625 1.5625 1.5625s1.5625-0.69922 1.5625-1.5625c0-3 3.7109-4.793 7.8125-6.625 3.332 1.4883 6.4062 2.957 7.4375 5.0625h-10.562c-2.0508 0.03516-2.0547 3.0898 0 3.125h12.5c0.86328 0 1.5625-0.69922 1.5625-1.5625 0-4.0859-3.4023-6.4609-7.207-8.3359 9.6289-4.2383 9.6172-12.438 0-16.672 9.625-4.2344 9.6211-12.434 0.0039-16.664zm-3.7344 31.625c-3.5977-1.6055-6.8945-3.1875-7.6484-5.5781h7.6484c0.86328 0 1.5625-0.69922 1.5625-1.5625s-0.69922-1.5625-1.5625-1.5625h-7.1406c1.25-1.8359 4.0859-3.1836 7.1406-4.5469 10.438 4.1758 10.426 9.0781 0 13.25zm0-16.668c-10.434-4.1758-10.43-9.0742 0-13.242 2.7578 1.2305 5.3438 2.4453 6.7383 4.0234h-6.7383c-2.0547 0.03516-2.0547 3.0898 0 3.125h7.7695c-0.41016 2.6836-3.918 4.375-7.7695 6.0977z"/>
  <path d="m9.3906 84.375h25c2.0547-0.05078 2.0586-3.082 0-3.125h-25c-1.7227 0-3.125-1.4023-3.125-3.125v-53.125c0-1.7227 1.4023-3.125 3.125-3.125h34.375c2.7461 0.43359 2.7891-3.4102 0-3.125h-34.375c-3.4453 0-6.25 2.8047-6.25 6.25v53.125c0 3.4453 2.8047 6.25 6.25 6.25z"/>
  <path d="m40.641 28.125h-4.6875c-2.0508 0.03516-2.0547 3.0898 0 3.125h4.6875c2.0508-0.03516 2.0547-3.0898 0-3.125z"/>
  <path d="m40.641 34.375h-7.8125c-2.0508 0.03516-2.0547 3.0898 0 3.125h7.8125c2.0508-0.03516 2.0547-3.0898 0-3.125z"/>
  <path d="m40.641 45.312h-4.6875c-2.0508 0.03516-2.0547 3.0898 0 3.125h4.6875c2.0508-0.03516 2.0547-3.0898 0-3.125z"/>
  <path d="m32.828 51.562c-2.0508 0.03516-2.0547 3.0898 0 3.125h7.8125c2.0508-0.03516 2.0547-3.0898 0-3.125z"/>
 </g>
</svg>
