<?xml version="1.0" encoding="UTF-8"?>
<svg version="1.1" viewBox="-5 -10 110 135" xmlns="http://www.w3.org/2000/svg">
 <path d="m18.208 41.804v-16.957c-0.0039-1.0391 0.40625-2.0391 1.1445-2.7734 0.73438-0.73438 1.7344-1.1445 2.7773-1.1367l8.1172 0.01172 0.71094-1.2344h-12.363c-0.9375 0-1.6953 0.75781-1.6992 1.6953v22.66l1.3086-2.2656zm26.766 19.27c5.8164 0 11.301 2.707 14.836 7.3203 3.5391 4.6133 4.7344 10.609 3.2266 16.223-1.5039 5.6172-5.5391 10.215-10.91 12.438-5.3711 2.2227-11.473 1.8242-16.508-1.0859-5.0352-2.9062-8.4297-7.9922-9.1875-13.758-0.75781-5.7617 1.2109-11.551 5.3242-15.664 3.5039-3.5078 8.2617-5.4805 13.219-5.4727zm11.652 7.0508v0.0039c-3.6211-3.625-8.7227-5.3555-13.805-4.6875-5.0781 0.66797-9.5586 3.6641-12.117 8.1016-2.5625 4.4375-2.9141 9.8125-0.95312 14.547 1.9609 4.7305 6.0117 8.2812 10.961 9.6094 4.9492 1.3242 10.234 0.26953 14.297-2.8477 4.0664-3.1211 6.4453-7.9531 6.4453-13.078 0.0039-4.3711-1.7305-8.5664-4.8281-11.652zm-9.4922-13c-0.29688 0.0078-0.58984-0.10547-0.80469-0.3125-0.21484-0.21094-0.33984-0.49609-0.33984-0.79687s0.125-0.58984 0.33984-0.79688c0.21484-0.21094 0.50781-0.32422 0.80469-0.31641h14.164c0.30078-0.0078 0.58984 0.10547 0.80859 0.31641 0.21484 0.20703 0.33594 0.49609 0.33594 0.79688 0 0.30078-0.12109 0.58594-0.33594 0.79687-0.21875 0.20703-0.50781 0.32031-0.80859 0.3125zm17.039 0c-0.59766-0.01953-1.0742-0.51172-1.0742-1.1094 0-0.60156 0.47656-1.0938 1.0742-1.1133h4.2578c0.30078-0.0078 0.58984 0.10547 0.80469 0.31641 0.21875 0.20703 0.33984 0.49609 0.33984 0.79688 0 0.30078-0.12109 0.58594-0.33984 0.79687-0.21484 0.20703-0.50391 0.32031-0.80469 0.3125zm-17.039-6.6719v-0.0039c-0.29688 0.01172-0.58984-0.10156-0.80469-0.3125-0.21484-0.20703-0.33984-0.49609-0.33984-0.79688 0-0.30078 0.125-0.58594 0.33984-0.79688 0.21484-0.20703 0.50781-0.32031 0.80469-0.3125h5.8555c0.30078-0.0078 0.59375 0.10547 0.80859 0.3125 0.21484 0.21094 0.33594 0.49609 0.33594 0.79688 0 0.30078-0.12109 0.58984-0.33594 0.79688-0.21484 0.21094-0.50781 0.32422-0.80859 0.3125zm8.7383 0v-0.0039c-0.30078 0.01172-0.58984-0.10156-0.80859-0.3125-0.21484-0.20703-0.33594-0.49609-0.33594-0.79688 0-0.30078 0.12109-0.58594 0.33594-0.79688 0.21875-0.20703 0.50781-0.32031 0.80859-0.3125h12.559c0.30078-0.0078 0.58984 0.10547 0.80469 0.3125 0.21875 0.21094 0.33984 0.49609 0.33984 0.79688 0 0.30078-0.12109 0.58984-0.33984 0.79688-0.21484 0.21094-0.50391 0.32422-0.80469 0.3125zm-8.7383-6.6719v-0.0039c-0.29688 0.0078-0.58984-0.10547-0.80469-0.3125-0.21484-0.21094-0.33984-0.49609-0.33984-0.79688s0.125-0.58984 0.33984-0.79688c0.21484-0.21094 0.50781-0.32422 0.80469-0.3125h8.5039c0.60156 0.01563 1.0781 0.50781 1.0781 1.1094 0 0.59766-0.47656 1.0898-1.0781 1.1094zm11.379 0v-0.0039c-0.59766-0.01953-1.0742-0.51172-1.0742-1.1094 0-0.60156 0.47656-1.0938 1.0742-1.1094h9.918c0.30078-0.01172 0.58984 0.10156 0.80469 0.3125 0.21875 0.20703 0.33984 0.49609 0.33984 0.79688s-0.12109 0.58594-0.33984 0.79688c-0.21484 0.20703-0.50391 0.32031-0.80469 0.3125zm-11.379-6.6719v-0.0078c-0.61328 0-1.1094-0.49609-1.1094-1.1094s0.49609-1.1094 1.1094-1.1094h3.6367c0.61328 0 1.1094 0.49609 1.1094 1.1094s-0.49609 1.1094-1.1094 1.1094zm6.5117 0v-0.0078c-0.61328 0-1.1094-0.49609-1.1094-1.1094s0.49609-1.1094 1.1094-1.1094h14.785c0.61328 0 1.1094 0.49609 1.1094 1.1094s-0.49609 1.1094-1.1094 1.1094zm-21.988-10.113v-0.0039c2.082 0 3.9609 1.2578 4.7617 3.1836 0.79687 1.9258 0.35547 4.1406-1.1172 5.6172l-0.04297 0.04297c3.2617 1.4336 5.3672 4.6602 5.3672 8.2227 0 0.60938-0.48828 1.1055-1.0977 1.1094h-15.738c-0.60938-0.0039-1.1055-0.5-1.1055-1.1094 0.0039-3.5625 2.1094-6.7891 5.3672-8.2227l-0.04297-0.04297h0.0039c-1.4727-1.4766-1.9141-3.6914-1.1172-5.6172 0.79688-1.9258 2.6758-3.1836 4.7617-3.1836zm2.082 3.0742c0.99219 0.99219 1.1445 2.543 0.36719 3.7109-0.77734 1.1641-2.2734 1.6172-3.5664 1.082-1.2969-0.53516-2.0312-1.9102-1.7617-3.2852 0.27344-1.375 1.4805-2.3672 2.8828-2.3672 0.78125 0 1.5273 0.30859 2.0781 0.85938zm-6.8555 9.2109c1.7891-1.7891 4.4297-2.4297 6.8398-1.6562 2.4102 0.77344 4.1875 2.8281 4.6016 5.3242h-13.332c0.23047-1.3906 0.89062-2.6719 1.8867-3.668zm5.9258-16.332 25.852 0.03125-17.938-10.352c-0.81641-0.46094-1.8477-0.18359-2.3164 0.625l-5.5977 9.6992zm30.293 0.03906 6.3359 0.0078c-0.07813-0.29688-0.23047-0.56641-0.44922-0.78516-0.31641-0.31641-0.74609-0.49609-1.1953-0.49609h-6.9062l2.2109 1.2734zm-6.0547-3.4961h10.738c2.0078 0.0039 3.6875 1.5234 3.8945 3.5195 2.0234 0.17578 3.582 1.8633 3.5898 3.8945v3.1133l9.1562 5.2891 0.07031 0.04297c1.8203 1.1016 2.4258 3.457 1.3594 5.3008l-5.7188 9.9062h5.8086c2.0859-0.02344 4.0547 0.94531 5.3125 2.6055 0.65234 0.82422 1.1016 1.7852 1.3203 2.8125 0.20703 1.0039 0.16406 2.043-0.13281 3.0273l-11.578 39.359v-0.0039c-0.09375 3.6484-3.0742 6.5586-6.7227 6.5625h-58.34c-3.7109-8e-3 -6.7148-3.0117-6.7266-6.7227v-44.836c0.00391-3.2773 2.3672-6.0781 5.5977-6.6289v-23.324c0.0039-2.1641 1.7578-3.9141 3.918-3.918h13.648l4.2422-7.3477c1.082-1.8711 3.4766-2.5117 5.3477-1.4336l15.207 8.7812zm18.223 13.082v22l8.6758-15.031c0.45312-0.79688 0.19922-1.8047-0.57422-2.293l-0.04687-0.02734zm0.08594 26.277c3.1914 0.58984 5.5078 3.3711 5.5117 6.6133v25.039l9.457-32.133c0.19141-0.63672 0.22266-1.3086 0.08984-1.9609-0.15234-0.69141-0.46094-1.3398-0.90234-1.8945-0.83594-1.1211-2.1641-1.7695-3.5664-1.7344h-7.082l-3.5039 6.0703zm-34.375 9.8945c-0.29297 0-0.57422 0.11719-0.78516 0.32422-0.20703 0.21094-0.32422 0.49219-0.32422 0.78516v6.8164h-6.8125c-0.61328 0-1.1094 0.49609-1.1133 1.1094v7.9844c0.0039 0.61328 0.5 1.1094 1.1133 1.1094h6.8125v6.8125c0 0.29688 0.11719 0.57813 0.32422 0.78516 0.21094 0.21094 0.49219 0.32812 0.78516 0.32812h7.9844c0.29688 0 0.57813-0.11719 0.78516-0.32812 0.21094-0.20703 0.32812-0.48828 0.32812-0.78516v-6.8125h6.8164c0.61328 0 1.1055-0.49609 1.1055-1.1094v-7.9844c0-0.61328-0.49219-1.1094-1.1055-1.1094h-6.8164v-6.8164c0-0.29297-0.11719-0.57422-0.32812-0.78516-0.20703-0.20703-0.48828-0.32422-0.78516-0.32422zm6.875 2.2188-5.7617 0.0039v6.8125c0 0.61328-0.5 1.1094-1.1133 1.1094h-6.8125v5.7656h6.8125c0.61328 0 1.1133 0.49609 1.1133 1.1094v6.8125h5.7656l-0.0039-6.8125c0-0.29297 0.11719-0.57813 0.32422-0.78516 0.21094-0.20703 0.49219-0.32422 0.78516-0.32422h6.8164v-5.7656h-6.8164c-0.29297 0-0.57422-0.11719-0.78516-0.32422-0.20703-0.20703-0.32422-0.49219-0.32422-0.78516zm-27.426-24.324v-19.789c-0.01172-0.45312 0.16406-0.88672 0.49219-1.1992 0.3125-0.33203 0.75-0.51172 1.207-0.5l49.23 0.0625c0.93359 0.0039 1.6914 0.76562 1.6914 1.6992v31.828h-25.965c-1.6328 0.03125-3.1445-0.85156-3.9219-2.2812l-3.6289-6.4102c-1.1758-2.125-3.4219-3.4375-5.8477-3.4102zm13.262 2.2227h-17.887c-2.4844 0.0039-4.5 2.0156-4.5039 4.5v44.836c0.0039 2.4844 2.0195 4.4961 4.5039 4.5039h58.34c2.4844-8e-3 4.4961-2.0195 4.5039-4.5039v-32.738 0.0039c-0.0078-2.4844-2.0195-4.5-4.5039-4.5039h-27.059c-2.4297 0.02344-4.6758-1.2852-5.8477-3.4102l-3.6328-6.4062c-0.77734-1.4336-2.2891-2.3125-3.918-2.2812z" fill-rule="evenodd"/>
</svg>
