<?xml version="1.0" encoding="UTF-8"?>
<svg version="1.1" viewBox="-5 -10 110 135" xmlns="http://www.w3.org/2000/svg">
 <g transform="translate(-1.8659 7.7838)">
  <path d="m30.516 32.277c0.86328 0 1.5625-0.69922 1.5625-1.5625 0-1.1016 0.89844-2 2-2s2 0.89844 2 2c0 0.86328 0.69922 1.5625 1.5625 1.5625s1.5625-0.69922 1.5625-1.5625c0-2.8242-2.2969-5.125-5.125-5.125-2.8242 0-5.125 2.2969-5.125 5.125 0 0.86328 0.69922 1.5625 1.5625 1.5625z"/>
  <path d="m43.383 32.277c0.86328 0 1.5625-0.69922 1.5625-1.5625 0-1.1016 0.89844-2 2-2 1.1016 0 2 0.89844 2 2 0 0.86328 0.69922 1.5625 1.5625 1.5625s1.5625-0.69922 1.5625-1.5625c0-2.8242-2.3008-5.125-5.125-5.125s-5.125 2.2969-5.125 5.125c0 0.86328 0.69922 1.5625 1.5625 1.5625z"/>
  <path d="m82.621 39.926h-5.1914c-0.86328 0-1.5625 0.69922-1.5625 1.5625s0.69922 1.5625 1.5625 1.5625h3.6289v6.7578c0 3.9375-3.2031 7.1406-7.1602 7.1406-3.9375 0-7.1406-3.2031-7.1406-7.1406v-6.7578h3.6055c0.86328 0 1.5625-0.69922 1.5625-1.5625s-0.69922-1.5625-1.5625-1.5625h-5.168c-0.86328 0-1.5625 0.69922-1.5625 1.5625v8.3203c0 5.125 3.7812 9.375 8.7109 10.133v14.055c0 0.64453-0.52734 1.1719-1.1719 1.1719s-1.1719-0.52734-1.1719-1.1719v-5.9883c0-2.5859-2.1016-4.6875-4.6875-4.6875s-4.6875 2.1016-4.6875 4.6875v7.293c0 1.6523-1.1094 3.0352-2.6211 3.4805 0.11328-0.69922 0.18359-1.4102 0.18359-2.1367v-12.519l0.0039-17.652c0-2.2031-1.375-4.082-3.3047-4.8516 0.60156-0.95312 1.1172-1.9492 1.5195-2.9961 0.53906 0.125 1.0938 0.19531 1.6523 0.19531 3.9414 0 7.1445-3.207 7.1445-7.1445 0-3.9414-3.207-7.1484-7.1445-7.1484-0.80469 0-1.5898 0.14844-2.3359 0.40625-0.48047-0.96875-1.0469-1.8906-1.7031-2.75 2.4648-0.79688 4.2773-3.1875 4.2773-6.0352 0-3.5-2.7109-6.3438-6.0391-6.3438-0.48437 0-0.96484 0.058593-1.4297 0.17969-0.83594 0.21484-1.3398 1.0664-1.125 1.9023 0.21484 0.83594 1.0664 1.3438 1.9023 1.125 0.21094-0.05469 0.43359-0.08203 0.65625-0.08203 1.6094 0 2.9141 1.4453 2.9141 3.2188 0 1.7734-1.3086 3.2188-2.9141 3.2188-0.69922 0-0.96094-0.05078-1.2227-0.23047l-0.0117-0.0117c-0.06641-0.04687-0.13672-0.09766-0.21094-0.16797-0.02734-0.02344-0.06641-0.03125-0.09375-0.05469-2.9609-2.2188-6.4727-3.4023-10.195-3.4023-6.4453 0-12.363 3.7305-15.234 9.4297-0.74219-0.25391-1.5195-0.39844-2.3164-0.39844-3.9414 0-7.1445 3.207-7.1445 7.1484s3.207 7.1445 7.1445 7.1445c0.55859 0 1.1094-0.07031 1.6484-0.19531 0.39844 1.0469 0.91016 2.0469 1.5117 3-1.9297 0.76953-3.3008 2.6484-3.3008 4.8477v30.168c0 7.4766 6.082 13.559 13.559 13.559h8.2539c5.5469 0 10.32-3.3516 12.418-8.1367 3.6992-0.03906 6.6992-3.0547 6.6992-6.7656v-7.293c0-0.86328 0.69922-1.5625 1.5625-1.5625s1.5625 0.69922 1.5625 1.5625v5.9883c0 2.3711 1.9258 4.2969 4.2969 4.2969s4.2969-1.9258 4.2969-4.2969v-14.055c4.9258-0.75391 8.7109-5.0039 8.7109-10.133v-8.3203c-0.01172-0.86328-0.71094-1.5625-1.5742-1.5625zm-27.555 18.668c-3.4531-4.4844-8.332-8.125-12.965-10.891 6.25-3.2578 10.82-3.332 10.863-3.332 1.1562 0 2.1016 0.94141 2.1016 2.1016zm7.0117-26.918c0 2.2188-1.8047 4.0195-4.0195 4.0195-0.27734 0-0.55078-0.04297-0.82031-0.09766 0.18359-1.0039 0.3125-2.0195 0.3125-3.0508 0-1.6211-0.22656-3.2031-0.66797-4.7188 0.375-0.11328 0.76953-0.17578 1.1797-0.17578 2.2109 0 4.0156 1.8047 4.0156 4.0234zm-21.562-13.051c3.1484 0 6.1133 1.0234 8.582 2.9609 2 1.5703 3.5234 3.6445 4.4141 6.0078 0.60547 1.5664 0.91016 3.2344 0.91016 4.9531 0 1.2461-0.16406 2.4727-0.49219 3.6523-0.51563 1.8945-1.4609 3.6719-2.7148 5.1953-2.3594 0.32031-6.8828 1.3242-12.309 4.5117-3.5859-1.9023-6.7461-3.2188-8.6133-3.9375-1.5156-1.6445-2.6328-3.625-3.2109-5.7773-0.32422-1.1758-0.49219-2.4023-0.49219-3.6445 0-1.7188 0.30859-3.3867 0.91016-4.957 2.0586-5.3633 7.2891-8.9648 13.016-8.9648zm-21.574 13.051c0-2.2188 1.8047-4.0234 4.0195-4.0234 0.40625 0 0.80078 0.05859 1.1719 0.17188-0.44141 1.5234-0.66797 3.1055-0.66797 4.7227 0 1.0352 0.12891 2.0508 0.3125 3.0508-0.26953 0.05469-0.53906 0.09766-0.81641 0.09766-2.2148 0-4.0195-1.8008-4.0195-4.0195zm25.695 55.395h-8.2539c-5.7539 0-10.434-4.6797-10.434-10.434v-30.164c0-1.082 0.82031-1.9727 1.8672-2.0898 2.5039 0.89844 21.59 8.1055 27.25 20.117v12.137c0 0.79297-0.09766 1.5625-0.26562 2.3047h-6.2148c-1.5547 0-2.8789-0.98438-3.3984-2.3594 2.8516-0.79688 4.9609-3.3906 4.9609-6.4922 0-3.7344-3.0391-6.7695-6.7695-6.7695-3.7344 0-6.7695 3.0391-6.7695 6.7695 0 3.25 2.3008 5.9648 5.3594 6.6172 0.65234 3.0586 3.3672 5.3594 6.6172 5.3594h4.9375c-1.832 2.9961-5.125 5.0039-8.8867 5.0039zm-1.2539-13.336c-2.0117 0-3.6445-1.6367-3.6445-3.6445 0-2.0117 1.6367-3.6445 3.6445-3.6445 2.0117 0 3.6445 1.6367 3.6445 3.6445 0 2.0117-1.6367 3.6445-3.6445 3.6445z"/>
 </g>
</svg>
