<?xml version="1.0" encoding="UTF-8"?>
<svg version="1.1" viewBox="-5 -10 110 135" xmlns="http://www.w3.org/2000/svg">
 <path d="m39.648 47.449h-5.5195c-1.3789 0-2.5 1.1211-2.5 2.5v5.5195c0 1.3789 1.1211 2.5 2.5 2.5h5.5195c1.3789 0 2.5-1.1211 2.5-2.5v-5.5195c0-1.3789-1.1211-2.5-2.5-2.5zm-0.5 7.5195h-4.5195v-4.5195h4.5195zm13.789-7.5195h-5.5195c-1.3789 0-2.5 1.1211-2.5 2.5v5.5195c0 1.3789 1.1211 2.5 2.5 2.5h5.5195c1.3789 0 2.5-1.1211 2.5-2.5v-5.5195c0-1.3789-1.1211-2.5-2.5-2.5zm-0.5 7.5195h-4.5195v-4.5195h4.5195zm8.2734-7.5195c-1.3789 0-2.5 1.1211-2.5 2.5v5.5195c0 1.3789 1.1211 2.5 2.5 2.5h5.5195c1.3789 0 2.5-1.1211 2.5-2.5v-5.5195c0-1.3789-1.1211-2.5-2.5-2.5zm5.0195 7.5195h-4.5195v-4.5195h4.5195zm-26.082 5.8125h-5.5195c-1.3789 0-2.5 1.1211-2.5 2.5v5.5195c0 1.3789 1.1211 2.5 2.5 2.5h5.5195c1.3789 0 2.5-1.1211 2.5-2.5v-5.5195c0-1.3789-1.1211-2.5-2.5-2.5zm-0.5 7.5195h-4.5195v-4.5195h4.5195zm13.789-7.5195h-5.5195c-1.3789 0-2.5 1.1211-2.5 2.5v5.5195c0 1.3789 1.1211 2.5 2.5 2.5h5.5195c1.3789 0 2.5-1.1211 2.5-2.5v-5.5195c0-1.3789-1.1211-2.5-2.5-2.5zm-0.5 7.5195h-4.5195v-4.5195h4.5195zm13.793-7.5195h-5.5195c-1.3789 0-2.5 1.1211-2.5 2.5v5.5195c0 1.3789 1.1211 2.5 2.5 2.5h5.5195c1.3789 0 2.5-1.1211 2.5-2.5v-5.5195c0-1.3789-1.1211-2.5-2.5-2.5zm-0.5 7.5195h-4.5195v-4.5195h4.5195zm26.648-14.965h-14.785v-15.781h2.9219c1.3789 0 2.5-1.1211 2.5-2.5v-5.8008c0-1.3789-1.1211-2.5-2.5-2.5h-14.387c-0.19922-8.6328-7.2695-15.598-15.949-15.598-8.6797 0-15.75 6.9648-15.949 15.598h-14.746c-1.3789 0-2.5 1.1211-2.5 2.5v5.8008c0 1.3789 1.1211 2.5 2.5 2.5h2.9219v15.781h-14.785c-1.3789 0-2.5 1.1211-2.5 2.5v5.4453c0 1.3789 1.1211 2.5 2.5 2.5h1.9375v37.062h80.883v-37.062h1.9375c1.3789 0 2.5-1.1211 2.5-2.5v-5.4453c0-1.3789-1.1211-2.5-2.5-2.5zm-69.973 44.504h-9.8477v-34.023h9.8477zm0-37.059h-14.285v-4.4453h14.285zm27.773-46.621c7.1484 0 12.969 5.8164 12.969 12.969 0 7.1484-5.8164 12.969-12.969 12.969-7.1484 0-12.969-5.8164-12.969-12.969 0-7.1484 5.8164-12.969 12.969-12.969zm-27.773 20.395h-2.4219v-4.8008h14.461c0.28516 1.707 0.82813 3.3203 1.6094 4.8008h-13.652zm26.273 63.285h-12.785v-13.211h12.785zm15.785 0h-12.785v-13.211h12.785zm-31.57-16.207h-0.15625v-2.3672h34.883v2.3672zm41.699-28.297v44.504h-7.1289v-13.211h0.65625c1.3789 0 2.5-1.1211 2.5-2.5v-3.3672c0-1.3789-1.1211-2.5-2.5-2.5h-35.883c-1.3789 0-2.5 1.1211-2.5 2.5v3.3672c0 1.3789 1.1211 2.5 2.5 2.5h0.65625v13.211h-7.4883v-60.285h12.711c2.9297 3.3828 7.2461 5.5391 12.062 5.5391 4.8164 0 9.1328-2.1523 12.062-5.5391h12.352zm-10.293-18.781c0.78125-1.4766 1.3242-3.0938 1.6094-4.8008h14.105v4.8008zm23.141 63.285h-9.8477v-34.023h9.8477zm4.4375-37.059h-14.285v-4.4453h14.285zm-47.918-29.426h1.9922v1.9922c0 1.3789 1.1211 2.5 2.5 2.5h3.4609c1.3789 0 2.5-1.1211 2.5-2.5v-1.9922h1.9922c1.3789 0 2.5-1.1211 2.5-2.5v-3.4609c0-1.3789-1.1211-2.5-2.5-2.5h-1.9922v-1.9922c0-1.3789-1.1211-2.5-2.5-2.5h-3.4609c-1.3789 0-2.5 1.1211-2.5 2.5v1.9922h-1.9922c-1.3789 0-2.5 1.1211-2.5 2.5v3.4609c0 1.3789 1.1211 2.5 2.5 2.5zm0.5-5.4609h4.4922v-4.4922h2.4609v4.4922h4.4922v2.4609h-4.4922v4.4922h-2.4609v-4.4922h-4.4922z"/>
</svg>
