<?xml version="1.0" encoding="UTF-8"?>
<svg data-name="Layer 1" version="1.1" viewBox="0 0 48 60" xmlns="http://www.w3.org/2000/svg" xmlns:cc="http://creativecommons.org/ns#" xmlns:dc="http://purl.org/dc/elements/1.1/" xmlns:rdf="http://www.w3.org/1999/02/22-rdf-syntax-ns#">
 <title>surgery</title>
 <path d="m41.345 8.2515h-10.42a6 6 0 0 0-6 5.93l-0.73 5.5-0.27 2a0.51 0.51 0 0 0 0.28 0.52l1.78 0.89 0.65 3.27a2.37 2.37 0 0 0 2.29 1.89h4.1a9 9 0 0 0-1.59 1h-18.07a4.11 4.11 0 0 0-3.5 1.93l-2 3.24a0.48 0.48 0 0 0 0 0.5 0.53 0.53 0 0 0 0.44 0.27h1l-0.19 0.25-2 2.84a5.51 5.51 0 0 0-5.19 5.52v7a0.5 0.5 0 0 0 0.5 0.5h20a0.5 0.5 0 0 0 0.5-0.5v-5.55h5v7h18v-19.93a4.26 4.26 0 0 0 0-0.63 5.07 5.07 0 0 0-3.4-4.14 6.28 6.28 0 0 0 3.4-5.58v-9.14a4.58 4.58 0 0 0-4.58-4.58zm-10.42 1h10.42a3.59 3.59 0 0 1 3.58 3.58v1.42h-19a5 5 0 0 1 5-5zm2.51 9h5.49v1h-13.66l0.53-4h7.13v2.5a0.5 0.5 0 0 0 0.5 0.5zm6 5h-1a0.5 0.5 0 0 0 0 1h0.49v3h-3v-7h4.19a0.81 0.81 0 0 1 0.81 0.81v1.38a0.81 0.81 0 0 1-0.81 0.81zm-11.82 2.91-0.69-3.51a0.5 0.5 0 0 0-0.27-0.35l-1.73-0.84 0.21-1.21h9.79v7h-6a1.36 1.36 0 0 1-1.31-1.09zm2.68 4.14a9.5 9.5 0 0 0-0.91 1.18 8.62 8.62 0 0 0-0.52 0.94c-0.05 0.1-0.09 0.21-0.14 0.31s-0.19 0.45-0.27 0.68-0.08 0.26-0.12 0.4a4.16 4.16 0 0 0-0.17 0.63c0 0.14-0.06 0.29-0.09 0.43s0 0.25-0.07 0.38h-12.08v-5h14.41zm-21.15 3.89 1.56-2.48a3.14 3.14 0 0 1 2.66-1.46h1.56v4h-3.63l2.52-3.15a0.5 0.5 0 0 0-0.78-0.62l-3.01 3.77zm5.78 1.06v0.5a0.5 0.5 0 0 0 0.5 0.5h12.5v0.21 0.79h-10.57a2.29 2.29 0 0 0-1.59 1h-5.37a1.73 1.73 0 0 0 0-1.61l-0.42-0.83 0.49-0.6zm0.92 4.77c0.13-0.21 0.24-0.4 0.35-0.6s0.16-0.27 0.24-0.41a1.43 1.43 0 0 1 1-0.76h2.49v4h-5.57zm-6.49-3.3 0.18 0.36a0.74 0.74 0 0 1-0.19 0.91l-2.25 1.89zm-2.23 12.58v-0.11a5.26 5.26 0 0 1 0.32-0.83l0.09-0.11a6 6 0 0 1 0.46-0.73l0.09-0.13a6.75 6.75 0 0 1 0.57-0.63l0.12-0.1a4.89 4.89 0 0 1 0.68-0.52l0.12-0.07a4.5 4.5 0 0 1 0.79-0.4h0.1a5.36 5.36 0 0 1 0.89-0.26h0.07a5 5 0 0 1 2 0h0.07a5.36 5.36 0 0 1 0.89 0.26h0.1a4.5 4.5 0 0 1 0.79 0.4l0.12 0.07a4.89 4.89 0 0 1 0.68 0.52l0.12 0.1a6.75 6.75 0 0 1 0.57 0.63l0.09 0.13a6 6 0 0 1 0.46 0.73l0.06 0.12a5.26 5.26 0 0 1 0.32 0.83v0.11a5.65 5.65 0 0 1 0.23 0.94h-11a5.65 5.65 0 0 1 0.2-0.95zm14.8 0.95h-3v-0.09-0.27l-0.06-0.36-0.12-0.28a3.37 3.37 0 0 0-0.09-0.34 2.76 2.76 0 0 0-0.08-0.27l-0.12-0.32-0.11-0.26-0.15-0.3-0.13-0.24-0.14-0.27-0.15-0.23-0.2-0.27-0.18-0.21c-0.07-0.09-0.15-0.17-0.22-0.25l-0.2-0.2-0.25-0.22-0.21-0.18a1.89 1.89 0 0 0-0.27-0.2l-0.22-0.16-0.29-0.18-0.24-0.13-0.31-0.16-0.26-0.12-0.33-0.12-0.25-0.09-0.42-0.09-0.24-0.06-0.42-0.07h-0.21-0.65-0.65-0.21l-0.42 0.07-0.24 0.06-0.37 0.09-0.25 0.09-0.33 0.12-0.25 0.11-0.31 0.16-0.24 0.13-0.29 0.18-0.22 0.16a1.89 1.89 0 0 0-0.27 0.2l-0.21 0.18-0.42 0.42c-0.07 0.08-0.15 0.16-0.22 0.25l-0.18 0.21-0.2 0.27-0.2 0.24-0.18 0.29-0.13 0.24-0.15 0.31c0 0.08-0.07 0.16-0.11 0.25l-0.12 0.32a2.76 2.76 0 0 0-0.08 0.27 3.37 3.37 0 0 0-0.09 0.34l-0.06 0.27-0.06 0.36v0.27l-0.02 0.08h-3v-6.45a4.52 4.52 0 0 1 3.25-4.36l-2.16 3a0.52 0.52 0 0 0 0.07 0.66 0.51 0.51 0 0 0 0.16 0.09h0.33a0.51 0.51 0 0 0 0.16-0.09l4.67-3.85h5.74l-0.14 0.22-2 3a0.5 0.5 0 0 0 0.42 0.78h6.5v1.32a0.67 0.67 0 0 0 0.68 0.68h1.32zm23-7v8h-16v-6h12a5.52 5.52 0 0 0 0.92-0.09h0.16a4.6 4.6 0 0 0 0.82-0.26l0.15-0.06a6.43 6.43 0 0 0 0.77-0.42 5 5 0 0 0 0.66-0.54 0.94 0.94 0 0 1 0.1-0.1 4.54 4.54 0 0 0 0.42-0.53zm-4.07-15a4.08 4.08 0 0 1 4 3.58 4 4 0 0 1 0 0.49v7.93a4.06 4.06 0 0 1-4 4h-19.93v-6h11.9a4.11 4.11 0 0 0 4.1-4.1v-2.4a0.5 0.5 0 0 0-1 0v2.4a3.1 3.1 0 0 1-3.1 3.1h-3.9v-0.79-0.67a8.3 8.3 0 0 1 1.27-3.77 8.21 8.21 0 0 1 1.73-1.89 8.07 8.07 0 0 1 4.64-1.88 5.3 5.3 0 0 1 0.57 0zm4.07-6.28a5.28 5.28 0 0 1-5 5.28v-3h0.19a1.81 1.81 0 0 0 1.81-1.81v-1.38a1.81 1.81 0 0 0-1.81-1.81h-0.19v-1.5a0.5 0.5 0 0 0-0.5-0.5h-5.5v-2h11z"/>
 <circle cx="27.925" cy="17.251" r="1"/>
 <path d="m11.925 24.251a8 8 0 1 0-8-8 8 8 0 0 0 8 8zm0-15a7 7 0 1 1-7 7 7 7 0 0 1 7-7z"/>
 <path d="m11.925 14.251a2 2 0 1 0-2-2 2 2 0 0 0 2 2zm0-3a1 1 0 1 1-1 1 1 1 0 0 1 1-1z"/>
 <path d="m9.925 16.251a2 2 0 1 0-2 2 2 2 0 0 0 2-2zm-3 0a1 1 0 1 1 1 1 1 1 0 0 1-1-1z"/>
 <path d="m15.925 18.251a2 2 0 1 0-2-2 2 2 0 0 0 2 2zm0-3a1 1 0 1 1-1 1 1 1 0 0 1 1-1z"/>
 <path d="m11.925 18.251a2 2 0 1 0 2 2 2 2 0 0 0-2-2zm0 3a1 1 0 1 1 1-1 1 1 0 0 1-1 1z"/>
 <path d="m8.425 42.251h-1a0.5 0.5 0 0 0 0 1h1a0.5 0.5 0 0 0 0-1z"/>
 <path d="m11.425 42.251h-1a0.5 0.5 0 0 0 0 1h1a0.5 0.5 0 0 0 0-1z"/>
 <metadata>
  <rdf:RDF>
   <cc:Work rdf:about="">
    <dc:title>surgery</dc:title>
   </cc:Work>
  </rdf:RDF>
 </metadata>
</svg>
