<?xml version="1.0" encoding="UTF-8"?>
<svg enable-background="new 0 0 66 66" version="1.1" viewBox="0 0 66 82.5" xml:space="preserve" xmlns="http://www.w3.org/2000/svg"><path d="m52.753 13.81h-1.1v-1.1c0-1.57-1.28-2.85-2.85-2.85h-37.11c-1.57 0-2.85 1.28-2.85 2.85v54.11c0 1.57 1.28 2.85 2.85 2.85h1.1v1.1c0 1.57 1.28 2.85 2.85 2.85h37.11c1.57 0 2.85-1.28 2.85-2.85v-54.11c0-1.57-1.28-2.85-2.85-2.85zm-42.16 53.01v-54.11c0-0.6 0.49-1.1 1.1-1.1h37.11c0.6 0 1.1 0.49 1.1 1.1v54.11c0 0.6-0.49 1.1-1.1 1.1h-37.11c-0.6 0-1.1-0.49-1.1-1.1zm43.26 3.95c0 0.6-0.49 1.1-1.1 1.1h-37.11c-0.6 0-1.1-0.49-1.1-1.1v-1.1h34.27c1.57 0 2.85-1.28 2.85-2.85v-51.26h1.1c0.6 0 1.1 0.49 1.1 1.1v54.11z"/><path d="m30.253 37.82c6.55 0 11.88-5.33 11.88-11.88s-5.34-11.87-11.88-11.87-11.88 5.33-11.88 11.88 5.33 11.87 11.88 11.87zm0-22c5.58 0 10.13 4.54 10.13 10.13s-4.54 10.13-10.13 10.13-10.13-4.55-10.13-10.13 4.54-10.13 10.13-10.13z"/><path d="m24.733 28.82h2.64v2.64c0 0.76 0.62 1.38 1.38 1.38h3c0.76 0 1.38-0.62 1.38-1.38v-2.64h2.64c0.76 0 1.38-0.62 1.38-1.38v-3c0-0.76-0.62-1.38-1.38-1.38h-2.65v-2.62c0-0.76-0.62-1.38-1.38-1.38h-3c-0.76 0-1.38 0.62-1.38 1.38v2.64h-2.64c-0.76 0-1.38 0.62-1.38 1.38v3c0.02 0.75 0.64 1.36 1.39 1.36zm0.38-4h3.14c0.48 0 0.88-0.39 0.88-0.88v-3.14h2.25v3.14c0 0.48 0.39 0.88 0.88 0.88h3.14v2.25h-3.14c-0.48 0-0.88 0.39-0.88 0.88v3.14h-2.26v-3.14c0-0.48-0.39-0.88-0.88-0.88h-3.14v-2.25z"/><path d="m14.783 50.97h5.73c1.11 0 2.01-0.9 2.01-2.01v-5.72c0-1.11-0.9-2.01-2.01-2.01h-5.73c-1.11 0-2.01 0.9-2.01 2.01v5.73c0 1.1 0.9 2 2.01 2zm-0.26-7.73c0-0.14 0.12-0.26 0.26-0.26h5.73c0.14 0 0.26 0.12 0.26 0.26v5.73c0 0.14-0.12 0.26-0.26 0.26h-5.73c-0.14 0-0.26-0.12-0.26-0.26v-5.73z"/><path d="m25.983 43.98c0 0.48 0.39 0.88 0.88 0.88h20c0.48 0 0.88-0.39 0.88-0.88s-0.39-0.88-0.88-0.88h-20c-0.49 0.01-0.88 0.4-0.88 0.88z"/><path d="m26.853 49.09h15.28c0.48 0 0.88-0.39 0.88-0.88s-0.39-0.88-0.88-0.88h-15.28c-0.48 0-0.88 0.39-0.88 0.88s0.4 0.88 0.88 0.88z"/><path d="m20.513 63.99c1.11 0 2.01-0.9 2.01-2.01v-5.73c0-1.11-0.9-2.01-2.01-2.01h-5.73c-1.11 0-2.01 0.9-2.01 2.01v5.73c0 1.11 0.9 2.01 2.01 2.01h5.73zm-5.99-2.02v-5.73c0-0.14 0.12-0.26 0.26-0.26h5.73c0.14 0 0.26 0.12 0.26 0.26v5.73c0 0.14-0.12 0.26-0.26 0.26h-5.73c-0.14 0.01-0.26-0.11-0.26-0.26z"/><path d="m46.853 56.12h-20c-0.48 0-0.88 0.39-0.88 0.88s0.39 0.88 0.88 0.88h20c0.48 0 0.88-0.39 0.88-0.88s-0.4-0.88-0.88-0.88z"/><path d="m42.133 60.35h-15.28c-0.48 0-0.88 0.39-0.88 0.88s0.39 0.88 0.88 0.88h15.28c0.48 0 0.88-0.39 0.88-0.88s-0.4-0.88-0.88-0.88z"/></svg>
