<svg xmlns="http://www.w3.org/2000/svg" width="200" height="200" viewBox="0 0 200 200" version="1.1">
    <title>Champ faisant partie du standard OMOP</title>
    <path d="M 0.090 91.750 C 0.149 151.013, 0.510 181.286, 1.130 179 C 6.047 160.884, 8.008 154.770, 12.513 143.500 C 23.942 114.912, 40.066 88.504, 58.401 68.343 C 61.480 64.956, 64 61.810, 64 61.350 C 64 60.891, 53.328 49.836, 40.285 36.784 L 16.569 13.054 29.167 18.277 C 36.258 21.217, 41.270 23.818, 40.632 24.227 C 39.924 24.681, 45.350 30.811, 55.122 40.595 L 70.744 56.236 78.622 50.244 C 106.757 28.846, 146.841 10.101, 176.977 4.250 C 181.936 3.288, 185.995 2.163, 185.997 1.750 C 185.998 1.337, 144.150 1, 93 1 L 0 1 0.090 91.750"
          stroke="none" fill="#1b334a" fill-rule="evenodd"/>
    <path d="M 186.500 7.488 C 156.492 15.222, 126.426 29.662, 102.500 47.833 C 93.910 54.356, 80.006 66.365, 80.003 67.262 C 79.999 68.402, 106.156 96, 107.240 96 C 108.050 96, 141.849 63.489, 186.881 19.396 C 194.242 12.189, 200.092 5.807, 199.882 5.215 C 199.634 4.515, 194.953 5.310, 186.500 7.488 M 166.918 40.665 C 112.995 93.334, 109 97.296, 109 98.093 C 109 98.516, 115.638 105.768, 123.750 114.209 C 131.863 122.649, 146.128 137.643, 155.450 147.528 C 164.773 157.412, 178.611 171.938, 186.200 179.806 L 200 194.112 200 101.556 C 200 50.650, 199.851 9, 199.668 9 C 199.486 9, 184.748 23.249, 166.918 40.665 M 66.615 68.709 C 68.004 72.398, 69.315 75.701, 69.530 76.049 C 69.745 76.396, 66.735 80.239, 62.843 84.590 C 36.501 114.031, 12.791 155.691, 3.003 189.735 C 1.701 194.264, 0.933 198.266, 1.297 198.630 C 1.660 198.993, 14.350 187.188, 29.497 172.395 C 44.644 157.603, 67.041 135.865, 79.269 124.089 C 91.496 112.312, 101.786 102.187, 102.136 101.589 C 102.713 100.602, 66.240 62, 64.731 62 C 64.378 62, 65.226 65.019, 66.615 68.709 M 82.485 122.756 C 70.926 134.165, 48.764 155.798, 33.235 170.829 C 17.706 185.859, 5 198.572, 5 199.079 C 5 199.634, 43.318 200, 101.500 200 C 154.575 200, 198 199.703, 198 199.340 C 198 198.375, 190.463 190.443, 152.544 151.500 C 133.800 132.250, 115.361 113.237, 111.568 109.250 C 107.775 105.263, 104.408 102.003, 104.086 102.006 C 103.764 102.010, 94.043 111.348, 82.485 122.756"
          stroke="none" fill="#f09114" fill-rule="evenodd"/>
</svg>