<?xml version="1.0" encoding="UTF-8"?>
<!DOCTYPE svg PUBLIC "-//W3C//DTD SVG 1.1//EN" "http://www.w3.org/2000/svg">
<svg xmlns="http://www.w3.org/2000/svg" version="1.1" width="512px" height="512px" viewBox="0 0 500 500"
     style="shape-rendering:geometricPrecision; text-rendering:geometricPrecision; image-rendering:optimizeQuality; fill-rule:evenodd; clip-rule:evenodd"
     xmlns:xlink="http://www.w3.org/1999/xlink">
    <title>Champ pseudonymisé lors d'une mise à disposition des données</title>
    <g>
        <path style="opacity:0.991" fill="#70ac54"
              d="M 252.5,30.5 C 257.698,30.7308 262.698,31.8974 267.5,34C 327.167,55.8333 386.833,77.6667 446.5,99.5C 447.667,158.831 447.833,218.164 447,277.5C 441.107,332.788 417.607,378.955 376.5,416C 341.097,446.373 300.763,467.873 255.5,480.5C 201.134,465.746 154.634,438.079 116,397.5C 85.5935,363.336 68.2602,323.336 64,277.5C 63.1667,218.164 63.3334,158.831 64.5,99.5C 127.265,76.4704 189.932,53.4704 252.5,30.5 Z M 245.5,112.5 C 274.071,109.865 294.904,121.198 308,146.5C 309.802,151.375 311.135,156.375 312,161.5C 312.5,177.497 312.667,193.497 312.5,209.5C 321.833,209.5 331.167,209.5 340.5,209.5C 340.5,256.833 340.5,304.167 340.5,351.5C 283.833,351.5 227.167,351.5 170.5,351.5C 170.5,304.167 170.5,256.833 170.5,209.5C 179.833,209.5 189.167,209.5 198.5,209.5C 198.333,193.497 198.5,177.497 199,161.5C 204.463,135.539 219.963,119.206 245.5,112.5 Z"/>
    </g>
    <g>
        <path style="opacity:0.961" fill="#70ac54"
              d="M 248.5,143.5 C 265.071,141.189 275.905,147.855 281,163.5C 281.5,178.83 281.667,194.163 281.5,209.5C 264.167,209.5 246.833,209.5 229.5,209.5C 229.059,192.777 229.559,176.11 231,159.5C 234.503,151.492 240.336,146.159 248.5,143.5 Z"/>
    </g>
    <g>
        <path style="opacity:0.921" fill="#70ac54"
              d="M 252.5,265.5 C 265.519,266.016 271.019,272.682 269,285.5C 262.915,295.324 255.082,296.99 245.5,290.5C 238.316,279.38 240.649,271.047 252.5,265.5 Z"/>
    </g>
</svg>
