<svg xmlns="http://www.w3.org/2000/svg" width="512" height="512" viewBox="0 0 512 512" version="1.1">
    <title>Champ obligatoire</title>
    <path d="M 244.043 16.136 C 237.551 19.380, 232.780 24.660, 230.326 31.316 C 229.467 33.645, 229.132 55.433, 229.076 112.479 L 229 190.459 173.250 134.846 C 112.275 74.021, 115.291 76.522, 103 76.605 C 92.717 76.675, 84.173 81.996, 79.359 91.327 C 75.761 98.299, 75.495 108.569, 78.758 114.500 C 79.971 116.706, 105.746 143.275, 136.229 173.743 L 191.500 228.986 113.500 228.999 C 64.403 229.006, 34.161 229.383, 31.886 230.015 C 29.898 230.567, 27.135 232.073, 25.745 233.361 C 24.355 234.649, 22.516 235.972, 21.658 236.301 C 20.800 236.630, 18.737 239.283, 17.073 242.195 C 11.525 251.910, 11.755 261.313, 17.766 270.440 C 19.780 273.498, 21.758 276, 22.162 276 C 22.566 276, 24.029 277.049, 25.412 278.331 C 30.399 282.952, 31.295 283, 113.113 283 L 190.493 283 135.839 337.750 C 98.539 375.115, 80.448 393.929, 78.866 397 C 75.405 403.720, 75.633 413.747, 79.401 420.500 C 83.181 427.275, 85.612 429.741, 91.500 432.772 C 95.314 434.736, 98.042 435.357, 103 435.393 C 115.435 435.481, 112.164 438.217, 173.216 376.669 L 228.932 320.500 229.042 399 C 229.123 456.370, 229.468 478.357, 230.326 480.684 C 235.492 494.695, 251.922 502.616, 264.980 497.391 C 267.191 496.507, 269 495.492, 269 495.136 C 269 494.780, 270.278 493.923, 271.840 493.231 C 275.062 491.805, 280.121 485.165, 281.844 480.101 C 282.679 477.646, 283.008 455.011, 283.028 398.601 L 283.056 320.500 338.815 376.602 C 399.748 437.910, 396.846 435.479, 409 435.393 C 419.287 435.319, 427.832 430.027, 432.624 420.759 C 436.283 413.685, 436.475 403.732, 433.083 397 C 431.502 393.861, 414.289 375.944, 376.161 337.750 L 321.507 283 399.104 283 C 455.199 283, 477.643 282.680, 480.101 281.844 C 486.019 279.831, 491.942 274.843, 495.290 269.052 C 498.125 264.149, 498.500 262.623, 498.500 256 C 498.500 249.542, 498.083 247.744, 495.500 243.061 C 492.429 237.492, 486.651 232.526, 480.684 230.326 C 478.355 229.467, 456.429 229.130, 399 229.069 L 320.500 228.986 375.886 173.673 C 407.464 142.136, 432.171 116.671, 433.364 114.430 C 436.624 108.305, 436.232 98.091, 432.472 91.229 C 429.048 84.980, 427.158 83.113, 420.500 79.409 C 416.497 77.183, 414.203 76.621, 409 76.595 C 396.699 76.531, 399.716 74.030, 338.768 134.828 L 283.036 190.423 282.768 111.462 C 282.511 35.664, 282.422 32.344, 280.563 28.597 C 276.055 19.510, 265.801 13.027, 255.910 13.010 C 251.632 13.002, 248.846 13.736, 244.043 16.136"
          stroke="none" fill="#6c4ca8" fill-rule="evenodd"/>
</svg>